<svg xmlns="http://www.w3.org/2000/svg" xmlns:xlink="http://www.w3.org/1999/xlink" viewBox="0 0 489.56 236.44"><defs><style>.cls-1{fill:#231f20;}.cls-2{fill:url(#linear-gradient);}</style><linearGradient id="linear-gradient" x1="102.38" x2="102.38" y2="236.44" gradientUnits="userSpaceOnUse"><stop offset="0" stop-color="#ffd400"/><stop offset="0.29" stop-color="#fbbe14"/><stop offset="0.79" stop-color="#f28f3f"/><stop offset="1" stop-color="#ed6b3c"/></linearGradient></defs><title>Asset 21</title><g id="Layer_2" data-name="Layer 2"><g><path class="cls-1" d="M236.85,124.17c0-16.61,11.24-30.23,29.16-30.23s29.16,13.62,29.16,30.23S284.06,154.53,266,154.53,236.85,140.9,236.85,124.17Zm47.09,0c0-10.87-6.34-20.67-17.93-20.67s-17.92,9.8-17.92,20.67S254.54,145,266,145,283.94,135.17,283.94,124.17Z"/><path class="cls-1" d="M308.78,73.39h10.76v79.7H308.78Z"/><path class="cls-1" d="M331.6,119.51h28.68v9.32H331.6Z"/><path class="cls-1" d="M391.94,128.24l-8.72,8.84v16H372.47V73.39h10.75v51.26l27.84-29.28h13.51l-24.86,26.17,25.1,31.55H411.18Z"/><path class="cls-1" d="M432.92,78.88A7,7,0,0,1,439.85,72a6.94,6.94,0,0,1,6.94,6.93,6.84,6.84,0,0,1-6.94,6.82A6.92,6.92,0,0,1,432.92,78.88Zm1.68,16.49h10.75v57.72H434.6Z"/><path class="cls-1" d="M464.59,140.3V104.81H455V95.37h9.56V79.6h10.75V95.37h11.71v9.44H475.34v33.11c0,4.06,1.91,7.05,5.62,7.05a8.23,8.23,0,0,0,5.85-2.28l2.75,8.13c-2.27,2.15-5.62,3.71-11.23,3.71C469.25,154.53,464.59,149.39,464.59,140.3Z"/><path class="cls-2" d="M102.38,0,0,59.11V177.33l102.38,59.11,102.38-59.11V59.11ZM106,15.64,193,65.9v102L80.49,104.09ZM92.7,19.17l-33.95,118L18,62.27ZM43.81,189l-32.05-18.5V75.35l42.36,77.88Zm10.48,6.06,7.82-27.17,25.13,46.19Zm50.38,26.44L66.75,151.83l10.4-36.13L183.54,176Z"/></g></g></svg>
