<svg height='100px' width='100px'  fill="#ca2525" xmlns="http://www.w3.org/2000/svg" xmlns:xlink="http://www.w3.org/1999/xlink" version="1.1" x="0px" y="0px" viewBox="0 0 100 100" enable-background="new 0 0 100 100" xml:space="preserve"><path fill="#ca2525" d="M57.5,54.688h-15c-0.519,0-0.938,0.419-0.938,0.938s0.419,0.938,0.938,0.938h8.438v2.812  c0,2.067,1.681,3.75,3.75,3.75s3.75-1.683,3.75-3.75v-3.75C58.438,55.107,58.019,54.688,57.5,54.688z M56.562,59.375  c0,1.035-0.842,1.875-1.875,1.875s-1.875-0.84-1.875-1.875v-2.812h3.75V59.375z"></path><path fill="#ca2525" d="M38.087,50.663c0.184,0.183,0.423,0.274,0.663,0.274s0.479-0.092,0.663-0.274l1.212-1.212l1.212,1.212  c0.184,0.183,0.423,0.274,0.663,0.274s0.479-0.092,0.663-0.274c0.366-0.366,0.366-0.96,0-1.326l-1.212-1.212l1.212-1.212  c0.366-0.366,0.366-0.96,0-1.326s-0.96-0.366-1.326,0l-1.212,1.212l-1.212-1.212c-0.366-0.366-0.96-0.366-1.326,0  s-0.366,0.96,0,1.326l1.212,1.212l-1.212,1.212C37.721,49.703,37.721,50.297,38.087,50.663z"></path><path fill="#ca2525" d="M56.837,50.663c0.184,0.183,0.423,0.274,0.663,0.274s0.479-0.092,0.663-0.274l1.212-1.212l1.212,1.212  c0.184,0.183,0.423,0.274,0.663,0.274s0.479-0.092,0.663-0.274c0.366-0.366,0.366-0.96,0-1.326l-1.212-1.212l1.212-1.212  c0.366-0.366,0.366-0.96,0-1.326s-0.96-0.366-1.326,0l-1.212,1.212l-1.212-1.212c-0.366-0.366-0.96-0.366-1.326,0  s-0.366,0.96,0,1.326l1.212,1.212l-1.212,1.212C56.471,49.703,56.471,50.297,56.837,50.663z"></path><path fill="#ca2525" d="M75.792,19.908C75.942,19.947,76.089,20,76.25,20c1.034,0,1.875-0.84,1.875-1.875  c0-1.036-0.841-1.875-1.875-1.875s-1.875,0.839-1.875,1.875c0,0.161,0.053,0.308,0.092,0.458l-3.896,3.896  c-0.008,0.007-0.015,0.007-0.022,0.015c-0.007,0.007-0.009,0.015-0.015,0.021l-3.464,3.465C62.562,21.85,56.581,19.304,50,19.304  c-13.958,0-25.312,11.354-25.312,25.312c0,6.581,2.545,12.563,6.674,17.069l-7.337,7.339c-0.366,0.366-0.366,0.96,0,1.326  c0.184,0.183,0.423,0.274,0.663,0.274s0.479-0.092,0.663-0.274l3.468-3.468c5.529,5.211,12.646,8.159,20.244,8.384v5.671H46.25  c-1.551,0-2.812,1.262-2.812,2.812s1.262,2.812,2.812,2.812h7.5c1.551,0,2.812-1.262,2.812-2.812s-1.262-2.812-2.812-2.812h-2.812  v-5.673c16.622-0.501,30-14.148,30-30.89c0-7.95-3.003-15.423-8.43-21.182L75.792,19.908z M54.688,83.75  c0,0.517-0.421,0.938-0.938,0.938h-7.5c-0.517,0-0.938-0.421-0.938-0.938s0.421-0.938,0.938-0.938h7.5  C54.267,82.812,54.688,83.233,54.688,83.75z M50,21.179c12.924,0,23.438,10.514,23.438,23.438S62.924,68.054,50,68.054  S26.562,57.54,26.562,44.617S37.076,21.179,50,21.179z M79.062,44.375C79.062,60.4,66.025,73.438,50,73.438  c-7.45,0-14.452-2.809-19.855-7.881l2.532-2.534c4.533,4.27,10.62,6.907,17.323,6.907c13.958,0,25.312-11.354,25.312-25.312  c0-6.704-2.637-12.79-6.906-17.322l2.775-2.776C76.256,29.924,79.062,36.924,79.062,44.375z"></path><path fill="#ca2525" d="M50,26.562c1.354,0,2.699,0.152,3.997,0.45c0.071,0.017,0.142,0.024,0.211,0.024  c0.429,0,0.812-0.293,0.913-0.727c0.115-0.505-0.199-1.009-0.703-1.124c-1.438-0.33-2.924-0.498-4.418-0.498  c-0.519,0-0.938,0.419-0.938,0.938S49.481,26.562,50,26.562z"></path><path fill="#ca2525" d="M59.337,29.201c3.539,2.181,6.218,5.539,7.542,9.456c0.132,0.39,0.496,0.637,0.888,0.637  c0.099,0,0.201-0.017,0.301-0.05c0.49-0.167,0.754-0.697,0.587-1.188c-1.463-4.331-4.424-8.042-8.333-10.452  c-0.44-0.268-1.018-0.138-1.29,0.306C58.76,28.352,58.897,28.93,59.337,29.201z"></path></svg>
