<svg height='100px' width='100px'  fill="#ca2525" xmlns="http://www.w3.org/2000/svg" xmlns:xlink="http://www.w3.org/1999/xlink" version="1.1" x="0px" y="0px" viewBox="0 0 100 100" enable-background="new 0 0 100 100" xml:space="preserve"><ellipse fill="#ca2525" cx="40.625" cy="47.188" rx="1.875" ry="2.812"></ellipse><ellipse fill="#ca2525" cx="59.375" cy="47.188" rx="1.875" ry="2.812"></ellipse><path fill="#ca2525" d="M43.752,61.25h12.499c0.39,0,0.756-0.274,0.995-0.74c0.238-0.467,0.313-1.073,0.208-1.637  c-0.051-0.285-1.366-6.998-7.454-6.998c-6.086,0-7.401,6.713-7.452,6.998c-0.106,0.564-0.029,1.17,0.208,1.637  C42.991,60.976,43.36,61.25,43.752,61.25z"></path><path fill="#ca2525" d="M75.792,19.908C75.942,19.947,76.089,20,76.25,20c1.035,0,1.875-0.84,1.875-1.875  c0-1.036-0.84-1.875-1.875-1.875s-1.875,0.839-1.875,1.875c0,0.161,0.053,0.308,0.092,0.458l-3.896,3.896  c-0.008,0.007-0.015,0.007-0.022,0.015c-0.007,0.007-0.009,0.015-0.015,0.021l-3.464,3.465C62.563,21.85,56.581,19.304,50,19.304  c-13.958,0-25.312,11.354-25.312,25.312c0,6.581,2.545,12.563,6.674,17.069l-7.337,7.339c-0.366,0.366-0.366,0.96,0,1.326  c0.184,0.183,0.423,0.274,0.663,0.274s0.479-0.092,0.663-0.274l3.468-3.468c5.53,5.211,12.646,8.159,20.244,8.384v5.671H46.25  c-1.551,0-2.812,1.262-2.812,2.812s1.262,2.812,2.812,2.812h7.5c1.551,0,2.812-1.262,2.812-2.812s-1.262-2.812-2.812-2.812h-2.812  v-5.673c16.622-0.501,30-14.148,30-30.89c0-7.95-3.003-15.423-8.43-21.182L75.792,19.908z M54.688,83.75  c0,0.517-0.421,0.938-0.938,0.938h-7.5c-0.517,0-0.938-0.421-0.938-0.938s0.421-0.938,0.938-0.938h7.5  C54.267,82.812,54.688,83.233,54.688,83.75z M50,21.179c12.924,0,23.438,10.514,23.438,23.438S62.924,68.054,50,68.054  S26.562,57.54,26.562,44.617S37.076,21.179,50,21.179z M79.062,44.375C79.062,60.4,66.025,73.438,50,73.438  c-7.451,0-14.453-2.809-19.856-7.881l2.532-2.534c4.534,4.27,10.62,6.907,17.324,6.907c13.958,0,25.312-11.354,25.312-25.312  c0-6.704-2.637-12.79-6.907-17.322l2.776-2.776C76.255,29.924,79.062,36.924,79.062,44.375z"></path><path fill="#ca2525" d="M50,26.562c1.353,0,2.699,0.152,3.997,0.45c0.071,0.017,0.141,0.024,0.211,0.024  c0.428,0,0.812-0.293,0.914-0.727c0.115-0.505-0.2-1.009-0.703-1.124c-1.438-0.33-2.924-0.498-4.418-0.498  c-0.518,0-0.938,0.419-0.938,0.938S49.482,26.562,50,26.562z"></path><path fill="#ca2525" d="M59.336,29.201c3.54,2.181,6.218,5.539,7.542,9.456c0.132,0.39,0.496,0.637,0.888,0.637  c0.099,0,0.202-0.017,0.3-0.05c0.491-0.167,0.754-0.697,0.588-1.188c-1.463-4.331-4.424-8.042-8.333-10.452  c-0.439-0.268-1.018-0.138-1.291,0.306C58.76,28.352,58.897,28.93,59.336,29.201z"></path></svg>
